<?xml version="1.0" standalone="no"?>
<!DOCTYPE svg PUBLIC "-//W3C//DTD SVG 20010904//EN"
 "http://www.w3.org/TR/2001/REC-SVG-20010904/DTD/svg10.dtd">
<svg version="1.0" xmlns="http://www.w3.org/2000/svg"
 width="500px" height="200px" viewBox="0 0 862.000000 360.000000"
 preserveAspectRatio="xMidYMid meet">

<g transform="translate(0.000000,360.000000) scale(0.100000,-0.100000)"
fill="#0d6efd" stroke="none" >
<path fill='#0d6efd' d="M3199 3224 c-56 -17 -104 -67 -119 -124 -7 -27 -10 -270 -8 -762 l3
-723 27 -55 c15 -31 40 -67 55 -82 29 -28 97 -68 113 -68 6 0 29 -9 53 -19 23
-11 83 -36 132 -56 104 -43 316 -131 360 -150 17 -7 50 -21 75 -31 25 -9 51
-21 57 -27 7 -5 41 -11 75 -14 88 -6 142 23 180 98 l28 54 0 713 0 713 25 25
c14 14 47 35 73 46 98 43 140 61 227 100 50 22 124 55 165 73 41 18 112 49
157 69 98 43 115 44 142 9 21 -26 21 -29 19 -689 -3 -645 -4 -663 -23 -689
-13 -18 -63 -46 -145 -82 -172 -76 -196 -87 -272 -122 -37 -17 -71 -31 -76
-31 -6 0 -24 -13 -41 -29 -39 -37 -42 -81 -7 -116 41 -41 64 -40 172 5 54 23
137 58 184 77 47 19 104 43 127 54 24 10 47 19 53 19 16 0 84 40 113 68 15 15
40 51 55 82 l27 55 3 723 c2 492 -1 735 -8 762 -25 92 -126 153 -214 129 -39
-10 -124 -44 -193 -75 -17 -8 -34 -14 -38 -14 -3 0 -31 -11 -61 -25 -30 -14
-57 -25 -59 -25 -3 0 -24 -8 -48 -19 -23 -10 -98 -42 -167 -71 -211 -88 -224
-94 -268 -135 -24 -21 -56 -62 -70 -90 l-27 -50 -5 -694 -5 -694 -25 -18 c-24
-19 -26 -19 -75 -1 -27 11 -72 29 -100 42 -142 65 -182 83 -200 90 -11 4 -40
17 -65 28 -25 11 -101 44 -170 75 -82 36 -132 64 -145 82 -19 26 -20 44 -23
689 -2 660 -2 663 19 689 26 34 44 34 125 -4 37 -16 83 -36 103 -43 20 -8 83
-35 141 -60 110 -49 142 -52 174 -17 9 10 19 35 23 55 7 45 -13 78 -59 96 -18
7 -52 21 -75 31 -24 11 -45 19 -48 19 -2 0 -29 11 -59 25 -30 14 -58 25 -61
25 -3 0 -25 8 -48 19 -76 33 -171 69 -202 74 -16 3 -51 -1 -76 -9z"/>
<path fill='#0d6efd' d="M2709 2771 l-24 -19 0 -724 0 -723 22 -41 c38 -71 102 -117 231 -169
64 -26 131 -53 147 -60 17 -8 134 -55 260 -105 127 -50 243 -98 259 -106 16
-8 33 -14 37 -14 5 0 33 -11 63 -25 30 -14 58 -25 63 -25 4 0 21 -7 36 -15 16
-8 65 -27 110 -41 74 -25 97 -27 227 -27 130 0 153 2 227 27 45 14 94 33 110
41 15 8 32 15 36 15 5 0 33 11 63 25 30 14 58 25 63 25 4 0 21 6 37 14 16 8
133 56 259 106 127 50 248 100 270 110 22 9 88 36 147 59 118 46 184 95 221
165 22 41 22 47 25 550 3 381 0 516 -9 538 -17 41 -58 61 -98 47 -61 -21 -61
-20 -61 -544 0 -362 -3 -480 -12 -497 -18 -30 -47 -55 -83 -69 -16 -6 -64 -26
-105 -44 -41 -18 -115 -49 -165 -70 -49 -21 -103 -43 -120 -50 -16 -7 -86 -36
-155 -65 -150 -63 -235 -99 -315 -135 -222 -99 -384 -114 -538 -49 -34 14 -96
38 -137 54 -41 15 -100 39 -130 53 -30 13 -111 48 -180 77 -69 29 -138 58
-155 65 -16 7 -70 29 -120 50 -49 21 -124 52 -165 70 -41 18 -88 38 -105 44
-36 14 -65 39 -82 69 -10 17 -13 176 -13 700 l0 679 -25 27 c-29 32 -82 35
-116 7z"/>
<path d="M5460 2770 c-28 -28 -27 -93 2 -120 31 -28 92 -27 112 2 25 35 21
103 -6 122 -31 22 -84 20 -108 -4z" fill='#0d6efd'/>
</g>
</svg>
